HIERARCHY
ROOT Hips
{
 OFFSET 0.000000 0.000000 0.000000
 CHANNELS 6 Xposition Yposition Zposition Yrotation Xrotation Zrotation
 JOINT Chest
 {
  OFFSET 0.000000 9.857222 0.000240
  CHANNELS 3 Yrotation Xrotation Zrotation
  JOINT Chest2
  {
   OFFSET 0.000000 10.876940 -0.000436
   CHANNELS 3 Yrotation Xrotation Zrotation
   JOINT Chest3
   {
    OFFSET 0.000000 9.827798 0.000000
    CHANNELS 3 Yrotation Xrotation Zrotation
    JOINT Chest4
    {
     OFFSET 0.000000 9.827798 0.000000
     CHANNELS 3 Yrotation Xrotation Zrotation
     JOINT Neck
     {
      OFFSET 0.000000 13.831992 0.000000
      CHANNELS 3 Yrotation Xrotation Zrotation
      JOINT Head
      {
       OFFSET 0.000000 9.147643 -0.001036
       CHANNELS 3 Yrotation Xrotation Zrotation
       End Site
       {
        OFFSET 0.000000 17.515799 -0.000541
       }
      }
     }
     JOINT RightCollar
     {
      OFFSET -3.001579 7.717577 0.000000
      CHANNELS 3 Yrotation Xrotation Zrotation
      JOINT RightShoulder
      {
       OFFSET -14.002642 0.000000 0.000000
       CHANNELS 3 Yrotation Xrotation Zrotation
       JOINT RightElbow
       {
        OFFSET -30.053852 0.000000 0.000000
        CHANNELS 3 Yrotation Xrotation Zrotation
        JOINT RightWrist
        {
         OFFSET -24.564923 0.000000 -0.000000
         CHANNELS 3 Yrotation Xrotation Zrotation
         End Site
         {
          OFFSET -18.334355 0.000000 0.000000
         }
        }
       }
      }
     }
     JOINT LeftCollar
     {
      OFFSET 3.001579 7.717577 0.000000
      CHANNELS 3 Yrotation Xrotation Zrotation
      JOINT LeftShoulder
      {
       OFFSET 14.002642 0.000000 0.000000
       CHANNELS 3 Yrotation Xrotation Zrotation
       JOINT LeftElbow
       {
        OFFSET 30.053852 0.000000 0.000000
        CHANNELS 3 Yrotation Xrotation Zrotation
        JOINT LeftWrist
        {
         OFFSET 24.564923 0.000000 -0.000000
         CHANNELS 3 Yrotation Xrotation Zrotation
         End Site
         {
          OFFSET 18.334355 0.000000 0.000000
         }
        }
       }
      }
     }
    }
   }
  }
 }
 JOINT RightHip
 {
  OFFSET -8.003235 -0.001175 -0.000120
  CHANNELS 3 Yrotation Xrotation Zrotation
  JOINT RightKnee
  {
   OFFSET 0.000000 -41.759727 0.000113
   CHANNELS 3 Yrotation Xrotation Zrotation
   JOINT RightAnkle
   {
    OFFSET 0.000000 -40.728748 0.000159
    CHANNELS 3 Yrotation Xrotation Zrotation
    JOINT RightToe
    {
     OFFSET 0.000000 -6.515296 14.732841
     CHANNELS 3 Yrotation Xrotation Zrotation
     End Site
     {
      OFFSET 0.000000 -1.502839 6.412115
     }
    }
   }
  }
 }
 JOINT LeftHip
 {
  OFFSET 8.003235 -0.001175 -0.000120
  CHANNELS 3 Yrotation Xrotation Zrotation
  JOINT LeftKnee
  {
   OFFSET 0.000000 -41.759727 0.000113
   CHANNELS 3 Yrotation Xrotation Zrotation
   JOINT LeftAnkle
   {
    OFFSET 0.000000 -40.728748 0.000159
    CHANNELS 3 Yrotation Xrotation Zrotation
    JOINT LeftToe
    {
     OFFSET 0.000000 -6.515296 14.732841
     CHANNELS 3 Yrotation Xrotation Zrotation
     End Site
     {
      OFFSET 0.000000 -1.502839 6.412115
     }
    }
   }
  }
 }
}
MOTION
Frames: 13
Frame Time: 0.016667
33.770886 63.360557 14.357105 -18.425701 27.538024 -3.284740 -4.185783 14.799304 0.369306 3.502670 1.188577 -2.402911 3.502670 1.188577 -2.402911 2.631630 0.877712 -1.809002 1.143042 5.866138 -1.240153 2.992859 -25.242881 -3.135717 4.296716 20.491562 14.096820 65.941178 7.337057 -39.454442 21.451045 -8.824652 -15.344475 3.816048 2.952213 -8.665614 -21.998838 22.910231 14.977213 -43.046149 2.198306 39.370962 -32.490003 -8.757978 5.409578 11.218939 -5.358207 2.408669 -122.546423 -56.600963 106.426519 -69.163423 76.496716 -92.118161 -14.733758 -18.042485 -2.255915 14.374906 2.365060 6.999508 -101.370862 -81.299304 77.501288 86.455623 64.352288 77.164203 26.526473 -22.225673 4.468101 -23.575764 -1.928922 -10.685300
33.961849 62.839670 13.695819 -17.095885 27.895578 -2.858013 -5.273907 14.411812 0.782493 3.438830 1.196755 -2.338450 3.438830 1.196755 -2.338450 2.583653 0.884457 -1.760575 1.311838 5.965763 -1.541202 3.492802 -25.036923 -3.830272 4.397806 20.713503 13.826613 66.164218 6.920284 -39.566471 21.229394 -8.358951 -15.122873 3.808798 2.922591 -8.702275 -22.351425 23.041786 14.502395 -43.118251 2.154742 39.290811 -32.572093 -8.957854 5.234632 11.250640 -5.213665 2.442675 -125.653403 -56.066932 108.504874 -73.271106 76.954676 -96.546337 -13.624895 -18.004186 -2.041217 13.027956 2.558296 6.422867 -112.354591 -80.807293 87.818253 87.929844 65.369757 78.354102 26.377184 -21.226268 5.185847 -23.207929 -2.423883 -10.426671
34.099993 62.402481 13.156217 -15.954813 28.060538 -2.600983 -6.278526 14.372421 1.352893 3.340445 1.249858 -2.230503 3.340445 1.249858 -2.230503 2.509836 0.925250 -1.679703 1.538808 5.930255 -1.882037 4.139394 -25.072329 -4.644435 4.796777 20.620092 13.364596 66.344882 6.301161 -39.794786 21.288739 -8.240243 -14.884235 3.765558 2.802210 -8.543343 -22.205032 22.726182 14.059084 -43.017986 2.385399 39.243197 -32.836915 -9.439945 5.151342 11.272596 -5.176727 2.357698 -127.959114 -55.633434 109.865805 -77.253225 77.511059 -100.706160 -12.817577 -18.081321 -1.982304 12.045098 2.701033 6.006592 -119.516003 -80.293622 94.495167 89.234563 66.285586 79.483530 26.096133 -20.509592 5.732472 -22.764478 -2.733919 -10.158649
34.162519 62.094169 12.678656 -15.079576 28.325395 -2.547785 -6.904352 14.106800 2.025032 3.319360 1.199819 -2.134749 3.319360 1.199819 -2.134749 2.493656 0.888314 -1.607577 1.628823 6.012485 -2.112115 4.439767 -24.900266 -5.151009 5.088351 20.801667 13.088510 66.487844 5.623484 -40.082273 21.445574 -8.227241 -14.581472 3.770828 2.696941 -8.411770 -21.999239 22.818295 13.716068 -43.022447 2.619592 39.323985 -33.012674 -9.468697 5.055844 11.285355 -5.093668 2.228602 -129.516333 -55.041416 110.772795 -80.047618 77.926691 -103.638706 -12.216342 -18.234070 -2.054389 11.322036 2.862885 5.694051 -124.779200 -79.549110 99.589796 90.515088 67.093362 80.503750 25.598130 -19.918090 6.147457 -22.253270 -2.979015 -9.857902
34.192278 61.927348 12.341944 -14.524206 28.210574 -2.488123 -7.169297 14.035468 2.457821 3.320487 1.149110 -2.066483 3.320487 1.149110 -2.066483 2.494201 0.850647 -1.556109 1.617471 6.143219 -2.213010 4.460718 -24.652107 -5.337288 5.243211 21.033728 12.942481 66.635583 4.983448 -40.394783 21.503729 -8.067432 -14.147639 3.919410 2.840447 -8.591490 -21.949806 23.161626 13.399478 -42.780597 2.979640 39.657904 -32.995815 -8.921483 4.987363 11.228460 -5.249634 2.185686 -130.012967 -54.788061 110.889472 -81.361763 78.049426 -105.130422 -11.793854 -18.419184 -2.164217 10.941930 3.010893 5.515808 -126.426079 -79.299154 101.192679 91.047978 67.737571 80.808597 25.429846 -19.643161 6.472787 -22.024740 -3.047072 -9.692456
34.169720 61.899323 12.204527 -14.328027 27.683601 -2.443991 -7.119648 14.375080 2.701036 3.325465 1.155708 -2.009342 3.325465 1.155708 -2.009342 2.497846 0.855889 -1.513298 1.537983 6.223973 -2.263332 4.321234 -24.504350 -5.388956 5.278903 21.116772 12.769518 66.676260 4.548918 -40.670561 21.378017 -7.505800 -14.016923 4.024952 2.859893 -8.732866 -22.129436 23.340974 13.055367 -42.516965 3.293906 39.965350 -33.029487 -8.586050 5.258616 11.190258 -5.329777 2.256910 -129.558591 -54.987496 110.290785 -81.953557 78.051271 -105.779562 -11.641312 -18.620154 -2.352630 10.889530 3.036345 5.466882 -124.567998 -79.440938 99.411402 91.240426 68.110628 80.731874 25.370479 -19.699169 6.575547 -21.953941 -2.949237 -9.610853
34.106062 62.049638 12.195933 -14.271211 27.199963 -2.367246 -7.037075 14.712120 2.824375 3.314009 1.179609 -1.961470 3.314009 1.179609 -1.961470 2.489235 0.874112 -1.477499 1.467838 6.286950 -2.274954 4.181301 -24.391388 -5.369451 5.218465 21.085917 12.528713 66.741877 4.335206 -40.840695 21.261041 -7.137669 -13.920403 4.063330 2.881600 -8.698945 -22.235959 23.387224 12.773988 -42.212178 3.510237 40.255746 -33.385828 -9.066954 5.890311 11.234794 -5.225642 2.373944 -128.678775 -55.306648 109.419955 -81.483360 78.070749 -105.384786 -11.639981 -18.814373 -2.494115 10.974180 3.002338 5.466283 -121.370272 -79.678573 96.305679 90.715879 68.351311 79.907457 25.531379 -19.796750 6.645918 -22.049097 -2.886870 -9.607913
33.999505 62.390352 12.293292 -14.522749 26.765673 -2.393667 -6.815645 15.105017 2.865029 3.268559 1.225593 -1.923173 3.268559 1.225593 -1.923173 2.455212 0.908951 -1.448929 1.470744 6.292562 -2.255945 4.176470 -24.381980 -5.332361 5.150929 20.822218 12.198642 66.722827 4.417792 -40.944992 21.267506 -7.277273 -13.888397 4.018784 2.842245 -8.399806 -22.085830 23.150631 12.625883 -41.979907 3.645770 40.534243 -33.868411 -9.952790 6.455996 11.311151 -5.169533 2.436467 -127.044447 -55.626903 108.140062 -79.135762 77.868540 -103.118148 -11.807311 -18.954828 -2.651749 11.283242 2.916402 5.549035 -116.327260 -80.068810 91.551807 89.424627 68.341411 78.450013 25.666599 -20.027330 6.631272 -22.218637 -2.761648 -9.664344
33.867480 62.902302 12.529623 -15.228375 26.172326 -2.505517 -6.291782 15.677380 2.746278 3.200264 1.287692 -1.879853 3.200264 1.287692 -1.879853 2.404085 0.955968 -1.416620 1.537600 6.263222 -2.243070 4.306312 -24.432877 -5.344811 5.172909 20.413912 11.839834 66.540057 4.766303 -40.902140 21.356034 -7.755208 -14.074776 3.916369 2.701772 -8.002013 -21.796724 22.861272 12.489104 -41.806475 3.752795 40.855878 -34.199460 -10.860167 6.971340 11.391466 -4.853066 2.335829 -124.498847 -56.228155 106.282546 -75.439123 77.540137 -99.366757 -12.111689 -19.023295 -2.821384 11.779847 2.773700 5.693370 -108.088470 -80.682532 83.809748 87.680199 67.819141 76.754980 25.619622 -20.340028 6.418617 -22.402066 -2.590326 -9.737890
33.775646 63.577611 12.907292 -16.357305 25.608344 -2.593699 -5.409784 16.047398 2.400154 3.155709 1.276481 -1.845033 3.155709 1.276481 -1.845033 2.370564 0.947874 -1.390354 1.609662 6.351811 -2.214705 4.428546 -24.265688 -5.319305 5.193076 20.278966 11.636791 66.285305 5.198840 -40.779305 21.555747 -8.352634 -14.382314 3.884254 2.621178 -7.731651 -21.585161 22.812561 12.353610 -41.763890 3.842791 41.070638 -34.026859 -10.455377 6.994184 11.375189 -4.988078 2.256843 -121.436100 -57.072948 104.207966 -70.567786 76.939149 -94.369751 -12.275087 -18.928088 -2.842215 12.187815 2.615092 5.775105 -96.801662 -81.464791 73.226997 85.517861 66.836100 74.917829 25.240521 -20.673071 6.033124 -22.451632 -2.397117 -9.748306
33.689196 64.387851 13.404574 -17.782416 25.039198 -2.750695 -4.243587 16.319097 1.973175 3.134163 1.252810 -1.822631 3.134163 1.252810 -1.822631 2.354290 0.930300 -1.373387 1.667448 6.463089 -2.180731 4.517148 -24.057717 -5.272914 5.218068 20.244844 11.562430 66.131112 5.536745 -40.619909 21.844086 -8.775339 -14.736900 3.892376 2.546777 -7.578358 -21.434699 22.743299 12.342845 -41.751427 4.009990 41.053188 -33.803847 -9.814881 7.012279 11.346433 -5.096150 2.187224 -117.787609 -58.033923 101.711917 -65.243361 76.133143 -88.820724 -12.354752 -18.648996 -2.804376 12.620506 2.361072 5.844870 -82.210895 -81.885901 59.588015 83.458466 65.614827 73.188992 24.486257 -21.010214 5.493183 -22.225033 -2.215054 -9.633127
33.694947 65.341999 13.964398 -19.656483 25.147777 -2.805500 -2.758608 15.896138 1.268789 3.122809 1.237933 -1.813698 3.122809 1.237933 -1.813698 2.345714 0.919221 -1.366589 1.708356 6.505141 -2.161710 4.585567 -23.978269 -5.253125 5.262130 20.212686 11.584021 66.181552 5.628858 -40.490601 22.137085 -8.786286 -14.898470 3.922816 2.561979 -7.483537 -21.223614 22.728295 12.455708 -41.667249 4.258954 41.068601 -33.707403 -9.733878 7.177343 11.328349 -5.115520 2.128233 -114.596153 -58.948541 100.145117 -59.989701 75.218400 -83.357271 -12.123139 -18.377051 -2.521056 12.551951 2.239141 5.707729 -68.936841 -82.284232 47.601046 81.384000 64.214045 71.489736 23.137712 -21.246971 4.869410 -21.474810 -2.097443 -9.258534
33.611344 66.321018 14.749088 -21.130631 24.563757 -2.946602 -1.541493 16.162933 0.786532 3.107427 1.237679 -1.808724 3.107427 1.237679 -1.808724 2.334167 0.919101 -1.362826 1.740153 6.478923 -2.156728 4.648854 -24.025106 -5.262242 5.309590 20.194930 11.621598 66.399997 5.534187 -40.434242 22.333488 -8.337007 -14.791028 3.933705 2.546962 -7.351115 -20.988781 22.808109 12.544756 -41.521698 4.554534 41.153419 -33.643481 -9.952592 7.340912 11.312795 -5.068595 2.102487 -110.156748 -59.922049 96.666940 -55.064529 74.350122 -78.205112 -12.399935 -18.004567 -2.158325 12.817970 1.965991 5.691756 -50.756258 -81.617110 30.357756 79.060574 62.914752 69.621139 22.238525 -21.707930 4.243674 -21.017536 -1.920363 -9.060224
